<?xml version="1.0" encoding="utf-8"?>
<!-- Generator: Adobe Illustrator 25.2.0, SVG Export Plug-In . SVG Version: 6.00 Build 0)  -->
<svg version="1.1" id="레이어_1" xmlns="http://www.w3.org/2000/svg" xmlns:xlink="http://www.w3.org/1999/xlink" x="0px"
	 y="0px" viewBox="0 0 26.2 26.1" style="enable-background:new 0 0 26.2 26.1;" xml:space="preserve">
<style type="text/css">
	.st0{fill:#FFFFFF;}
	.st1{fill:none;stroke:#FFFFFF;stroke-width:1.9904;stroke-linecap:round;stroke-linejoin:bevel;stroke-miterlimit:10;}
</style>
<g>
	<g>
		<path class="st0" d="M13,3.9c5.1,0,9.3,4.2,9.3,9.3s-4.2,9.3-9.3,9.3s-9.3-4.2-9.3-9.3S7.9,3.9,13,3.9 M13,1.9
			C6.8,1.9,1.8,7,1.8,13.2S6.9,24.4,13,24.4s11.3-5.1,11.3-11.3S19.3,1.9,13,1.9L13,1.9z"/>
	</g>
	<g>
		<path class="st0" d="M13,0c-1,0-1.9,0.8-1.9,1.9s0.9,1.9,1.9,1.9s1.9-0.8,1.9-1.9S14.1,0,13,0L13,0z"/>
	</g>
	<g>
		<path class="st0" d="M21.1,3.4c-0.5,0-1,0.2-1.3,0.6c-0.7,0.7-0.7,1.9,0,2.6c0.4,0.4,0.9,0.6,1.3,0.6s1-0.2,1.3-0.6
			C23,5.9,23,4.8,22.3,4C21.9,3.5,21.5,3.4,21.1,3.4L21.1,3.4z"/>
	</g>
	<g>
		<path class="st0" d="M24.3,11.3c-1,0-1.9,0.8-1.9,1.9s0.8,1.9,1.9,1.9c1.1,0,1.9-0.8,1.9-1.9S25.4,11.3,24.3,11.3L24.3,11.3z"/>
	</g>
	<g>
		<path class="st0" d="M21.1,19.3c-0.5,0-1,0.2-1.3,0.6c-0.7,0.7-0.7,1.9,0,2.6c0.4,0.4,0.9,0.6,1.3,0.6s1-0.2,1.3-0.6
			c0.7-0.7,0.7-1.9,0-2.6C21.9,19.5,21.5,19.3,21.1,19.3L21.1,19.3z"/>
	</g>
	<g>
		<path class="st0" d="M5.1,19.3c-0.5,0-1,0.2-1.3,0.6c-0.7,0.7-0.7,1.9,0,2.6c0.4,0.4,0.9,0.6,1.3,0.6s1-0.2,1.3-0.6
			c0.7-0.7,0.7-1.9,0-2.6C6.1,19.5,5.6,19.3,5.1,19.3L5.1,19.3z"/>
	</g>
	<g>
		<path class="st0" d="M1.9,11.3c-1,0-1.9,0.8-1.9,1.9S0.8,15,1.9,15s1.9-0.8,1.9-1.9S2.8,11.3,1.9,11.3L1.9,11.3z"/>
	</g>
	<g>
		<path class="st0" d="M5.1,3.4c-0.5,0-1,0.2-1.3,0.6c-0.7,0.7-0.7,1.9,0,2.6C4.2,7,4.7,7.2,5.1,7.2c0.4,0,1-0.2,1.3-0.6
			c0.7-0.7,0.7-1.9,0-2.6C6.1,3.5,5.6,3.4,5.1,3.4L5.1,3.4z"/>
	</g>
	<polyline class="st1" points="14.2,15.9 15.4,19.3 17.7,25.4 	"/>
	<polyline class="st1" points="8.4,25.4 10.8,19.3 12,15.9 	"/>
	<g>
		<g>
			<path class="st0" d="M13,11.1c1.1,0,2,0.9,2,2s-0.9,2-2,2s-2-0.9-2-2S12,11.1,13,11.1 M13,9.2c-2.2,0-4,1.8-4,4s1.8,4,4,4
				c2.2,0,4-1.8,4-4S15.3,9.2,13,9.2L13,9.2z"/>
		</g>
	</g>
</g>
</svg>
